{
  "header": {
    "keySignatures": [],
    "meta": [],
    "name": "",
    "ppq": 960,
    "tempos": [
      {
        "bpm": 120,
        "ticks": 0
      }
    ],
    "timeSignatures": []
  },
  "tracks": [
    {
      "channel": 1,
      "controlChanges": {},
      "pitchBends": [],
      "instrument": {
        "family": "piano",
        "name": "bright acoustic piano",
        "number": 1
      },
      "name": "",
      "notes": [
        {
          "duration": 0.125,
          "durationTicks": 480,
          "midi": 59,
          "name": "B3",
          "ticks": 0,
          "time": 0,
          "velocity": 1
        },
        {
          "duration": 0.125,
          "durationTicks": 480,
          "midi": 71,
          "name": "B4",
          "ticks": 0,
          "time": 0,
          "velocity": 1
        },
        {
          "duration": 0.125,
          "durationTicks": 480,
          "midi": 64,
          "name": "E4",
          "ticks": 480,
          "time": 0.125,
          "velocity": 1
        },
        {
          "duration": 0.125,
          "durationTicks": 480,
          "midi": 71,
          "name": "B4",
          "ticks": 480,
          "time": 0.125,
          "velocity": 1
        },
        {
          "duration": 0.125,
          "durationTicks": 480,
          "midi": 59,
          "name": "B3",
          "ticks": 960,
          "time": 0.25,
          "velocity": 1
        },
        {
          "duration": 0.125,
          "durationTicks": 480,
          "midi": 69,
          "name": "A4",
          "ticks": 1440,
          "time": 0.375,
          "velocity": 1
        },
        {
          "duration": 0.125,
          "durationTicks": 480,
          "midi": 59,
          "name": "B3",
          "ticks": 1920,
          "time": 0.5,
          "velocity": 1
        },
        {
          "duration": 0.125,
          "durationTicks": 480,
          "midi": 55,
          "name": "G3",
          "ticks": 2400,
          "time": 0.625,
          "velocity": 1
        },
        {
          "duration": 0.125,
          "durationTicks": 480,
          "midi": 71,
          "name": "B4",
          "ticks": 2400,
          "time": 0.625,
          "velocity": 1
        },
        {
          "duration": 0.125,
          "durationTicks": 480,
          "midi": 59,
          "name": "B3",
          "ticks": 2880,
          "time": 0.75,
          "velocity": 1
        },
        {
          "duration": 0.125,
          "durationTicks": 480,
          "midi": 64,
          "name": "E4",
          "ticks": 3360,
          "time": 0.875,
          "velocity": 1
        },
        {
          "duration": 0.125,
          "durationTicks": 480,
          "midi": 71,
          "name": "B4",
          "ticks": 3360,
          "time": 0.875,
          "velocity": 1
        },
        {
          "duration": 0.125,
          "durationTicks": 480,
          "midi": 59,
          "name": "B3",
          "ticks": 3840,
          "time": 1,
          "velocity": 1
        },
        {
          "duration": 0.125,
          "durationTicks": 480,
          "midi": 69,
          "name": "A4",
          "ticks": 4320,
          "time": 1.125,
          "velocity": 1
        },
        {
          "duration": 0.125,
          "durationTicks": 480,
          "midi": 59,
          "name": "B3",
          "ticks": 4800,
          "time": 1.25,
          "velocity": 1
        },
        {
          "duration": 0.125,
          "durationTicks": 480,
          "midi": 55,
          "name": "G3",
          "ticks": 5280,
          "time": 1.375,
          "velocity": 1
        },
        {
          "duration": 0.125,
          "durationTicks": 480,
          "midi": 71,
          "name": "B4",
          "ticks": 5280,
          "time": 1.375,
          "velocity": 1
        },
        {
          "duration": 0.125,
          "durationTicks": 480,
          "midi": 52,
          "name": "E3",
          "ticks": 5760,
          "time": 1.5,
          "velocity": 1
        },
        {
          "duration": 0.125,
          "durationTicks": 480,
          "midi": 55,
          "name": "G3",
          "ticks": 6240,
          "time": 1.625,
          "velocity": 1
        },
        {
          "duration": 0.125,
          "durationTicks": 480,
          "midi": 59,
          "name": "B3",
          "ticks": 6720,
          "time": 1.75,
          "velocity": 1
        },
        {
          "duration": 0.125,
          "durationTicks": 480,
          "midi": 71,
          "name": "B4",
          "ticks": 6720,
          "time": 1.75,
          "velocity": 1
        },
        {
          "duration": 0.125,
          "durationTicks": 480,
          "midi": 64,
          "name": "E4",
          "ticks": 7200,
          "time": 1.875,
          "velocity": 1
        },
        {
          "duration": 0.125,
          "durationTicks": 480,
          "midi": 59,
          "name": "B3",
          "ticks": 7680,
          "time": 2,
          "velocity": 1
        },
        {
          "duration": 0.125,
          "durationTicks": 480,
          "midi": 69,
          "name": "A4",
          "ticks": 8160,
          "time": 2.125,
          "velocity": 1
        },
        {
          "duration": 0.125,
          "durationTicks": 480,
          "midi": 59,
          "name": "B3",
          "ticks": 8640,
          "time": 2.25,
          "velocity": 1
        },
        {
          "duration": 0.125,
          "durationTicks": 480,
          "midi": 55,
          "name": "G3",
          "ticks": 9120,
          "time": 2.375,
          "velocity": 1
        },
        {
          "duration": 0.125,
          "durationTicks": 480,
          "midi": 52,
          "name": "E3",
          "ticks": 9600,
          "time": 2.5,
          "velocity": 1
        },
        {
          "duration": 0.125,
          "durationTicks": 480,
          "midi": 71,
          "name": "B4",
          "ticks": 9600,
          "time": 2.5,
          "velocity": 1
        },
        {
          "duration": 0.125,
          "durationTicks": 480,
          "midi": 55,
          "name": "G3",
          "ticks": 10080,
          "time": 2.625,
          "velocity": 1
        },
        {
          "duration": 0.125,
          "durationTicks": 480,
          "midi": 59,
          "name": "B3",
          "ticks": 10560,
          "time": 2.75,
          "velocity": 1
        },
        {
          "duration": 0.125,
          "durationTicks": 480,
          "midi": 64,
          "name": "E4",
          "ticks": 11040,
          "time": 2.875,
          "velocity": 1
        },
        {
          "duration": 0.125,
          "durationTicks": 480,
          "midi": 71,
          "name": "B4",
          "ticks": 11040,
          "time": 2.875,
          "velocity": 1
        },
        {
          "duration": 0.125,
          "durationTicks": 480,
          "midi": 59,
          "name": "B3",
          "ticks": 11520,
          "time": 3,
          "velocity": 1
        },
        {
          "duration": 0.125,
          "durationTicks": 480,
          "midi": 69,
          "name": "A4",
          "ticks": 12000,
          "time": 3.125,
          "velocity": 1
        },
        {
          "duration": 0.125,
          "durationTicks": 480,
          "midi": 59,
          "name": "B3",
          "ticks": 12480,
          "time": 3.25,
          "velocity": 1
        },
        {
          "duration": 0.125,
          "durationTicks": 480,
          "midi": 55,
          "name": "G3",
          "ticks": 12960,
          "time": 3.375,
          "velocity": 1
        },
        {
          "duration": 0.125,
          "durationTicks": 480,
          "midi": 52,
          "name": "E3",
          "ticks": 13440,
          "time": 3.5,
          "velocity": 1
        },
        {
          "duration": 0.125,
          "durationTicks": 480,
          "midi": 71,
          "name": "B4",
          "ticks": 13440,
          "time": 3.5,
          "velocity": 1
        },
        {
          "duration": 0.125,
          "durationTicks": 480,
          "midi": 55,
          "name": "G3",
          "ticks": 13920,
          "time": 3.625,
          "velocity": 1
        },
        {
          "duration": 0.125,
          "durationTicks": 480,
          "midi": 59,
          "name": "B3",
          "ticks": 14400,
          "time": 3.75,
          "velocity": 1
        },
        {
          "duration": 0.125,
          "durationTicks": 480,
          "midi": 64,
          "name": "E4",
          "ticks": 14880,
          "time": 3.875,
          "velocity": 1
        },
        {
          "duration": 0.125,
          "durationTicks": 480,
          "midi": 71,
          "name": "B4",
          "ticks": 14880,
          "time": 3.875,
          "velocity": 1
        }
      ]
    },
    {
      "channel": 9,
      "controlChanges": {},
      "pitchBends": [],
      "instrument": {
        "family": "drums",
        "name": "standard kit",
        "number": 0
      },
      "name": "",
      "notes": [
        {
          "duration": 0.125,
          "durationTicks": 480,
          "midi": 35,
          "name": "B1",
          "ticks": 0,
          "time": 0,
          "velocity": 1
        },
        {
          "duration": 0.125,
          "durationTicks": 480,
          "midi": 35,
          "name": "B1",
          "ticks": 960,
          "time": 0.25,
          "velocity": 1
        },
        {
          "duration": 0.125,
          "durationTicks": 480,
          "midi": 39,
          "name": "D#2",
          "ticks": 960,
          "time": 0.25,
          "velocity": 1
        },
        {
          "duration": 0.125,
          "durationTicks": 480,
          "midi": 35,
          "name": "B1",
          "ticks": 1920,
          "time": 0.5,
          "velocity": 1
        },
        {
          "duration": 0.125,
          "durationTicks": 480,
          "midi": 39,
          "name": "D#2",
          "ticks": 2880,
          "time": 0.75,
          "velocity": 1
        },
        {
          "duration": 0.125,
          "durationTicks": 480,
          "midi": 35,
          "name": "B1",
          "ticks": 2880,
          "time": 0.75,
          "velocity": 1
        },
        {
          "duration": 0.125,
          "durationTicks": 480,
          "midi": 35,
          "name": "B1",
          "ticks": 3840,
          "time": 1,
          "velocity": 1
        },
        {
          "duration": 0.125,
          "durationTicks": 480,
          "midi": 35,
          "name": "B1",
          "ticks": 4800,
          "time": 1.25,
          "velocity": 1
        },
        {
          "duration": 0.125,
          "durationTicks": 480,
          "midi": 39,
          "name": "D#2",
          "ticks": 4800,
          "time": 1.25,
          "velocity": 1
        },
        {
          "duration": 0.125,
          "durationTicks": 480,
          "midi": 35,
          "name": "B1",
          "ticks": 5760,
          "time": 1.5,
          "velocity": 1
        },
        {
          "duration": 0.125,
          "durationTicks": 480,
          "midi": 35,
          "name": "B1",
          "ticks": 6720,
          "time": 1.75,
          "velocity": 1
        },
        {
          "duration": 0.125,
          "durationTicks": 480,
          "midi": 39,
          "name": "D#2",
          "ticks": 6720,
          "time": 1.75,
          "velocity": 1
        },
        {
          "duration": 0.125,
          "durationTicks": 480,
          "midi": 35,
          "name": "B1",
          "ticks": 7680,
          "time": 2,
          "velocity": 1
        },
        {
          "duration": 0.125,
          "durationTicks": 480,
          "midi": 35,
          "name": "B1",
          "ticks": 8640,
          "time": 2.25,
          "velocity": 1
        },
        {
          "duration": 0.125,
          "durationTicks": 480,
          "midi": 39,
          "name": "D#2",
          "ticks": 8640,
          "time": 2.25,
          "velocity": 1
        },
        {
          "duration": 0.125,
          "durationTicks": 480,
          "midi": 35,
          "name": "B1",
          "ticks": 9600,
          "time": 2.5,
          "velocity": 1
        },
        {
          "duration": 0.125,
          "durationTicks": 480,
          "midi": 35,
          "name": "B1",
          "ticks": 10560,
          "time": 2.75,
          "velocity": 1
        },
        {
          "duration": 0.125,
          "durationTicks": 480,
          "midi": 39,
          "name": "D#2",
          "ticks": 10560,
          "time": 2.75,
          "velocity": 1
        },
        {
          "duration": 0.125,
          "durationTicks": 480,
          "midi": 35,
          "name": "B1",
          "ticks": 11520,
          "time": 3,
          "velocity": 1
        },
        {
          "duration": 0.125,
          "durationTicks": 480,
          "midi": 35,
          "name": "B1",
          "ticks": 12480,
          "time": 3.25,
          "velocity": 1
        },
        {
          "duration": 0.125,
          "durationTicks": 480,
          "midi": 39,
          "name": "D#2",
          "ticks": 12480,
          "time": 3.25,
          "velocity": 1
        },
        {
          "duration": 0.125,
          "durationTicks": 480,
          "midi": 35,
          "name": "B1",
          "ticks": 13440,
          "time": 3.5,
          "velocity": 1
        },
        {
          "duration": 0.125,
          "durationTicks": 480,
          "midi": 35,
          "name": "B1",
          "ticks": 14400,
          "time": 3.75,
          "velocity": 1
        },
        {
          "duration": 0.125,
          "durationTicks": 480,
          "midi": 39,
          "name": "D#2",
          "ticks": 14400,
          "time": 3.75,
          "velocity": 1
        }
      ]
    }
  ]
}

